<?xml version="1.0"?>
<svg width="56" height="56" xmlns="http://www.w3.org/2000/svg" xmlns:svg="http://www.w3.org/2000/svg">
 <g class="layer">
  <title>Layer 1</title>
  <path d="m77.54,28.45c5.73,0 -11.92,-1.65 -11.92,-7.24c0,-5.63 32.21,-12.03 18.29,-13.24c-13.91,-1.21 -42.07,27.12 10.8,3.62c52.87,-23.5 -22.97,16.86 -17.18,16.86zm-60.88,14.01l24.26,0c0.81,0 1.52,-0.65 1.52,-1.51c0,-0.87 -0.71,-1.51 -1.52,-1.51l-23.91,0c-1.19,0 -1.89,-0.8 -2.1,-2.04l-0.33,-2.12l26.39,0c2.16,0 3.57,-0.9 4.3,-2.51l0.17,-0.43c-7.7,-0.02 -13.69,-5.77 -13.69,-13c0,-0.61 0.04,-1.21 0.13,-1.82l-19.97,0l-0.39,-2.56c-0.25,-1.55 -0.79,-2.34 -2.91,-2.34l-7.32,0c-0.83,0 -1.54,0.71 -1.54,1.51c0,0.82 0.71,1.53 1.54,1.53l7.03,0l3.32,22.13c0.44,2.87 2,4.66 5.02,4.66zm57.53,-8.22c-0.73,0 18.49,-2.86 18.49,-3.63l-16.12,-9.93l12.53,2.87c-0.7,0 84.85,-7.81 21.35,-2.6c-63.5,5.22 -9.43,-15.88 -8.73,-15.88l-27.78,12l1.25,-6.18c0,-0.77 -27.34,1.39 -4.99,-0.98c22.34,-2.37 2.1,1.09 2.1,1.86l-0.25,4.8l-3.53,0.62c0.71,0 47.41,1.31 24.54,1.38c-22.87,0.06 -18.08,3.72 -18.79,3.72l17.28,9l-16.5,2.05c0,0.77 -0.13,0.88 -0.85,0.88zm-59.26,14.74c0,1.84 1.48,3.27 3.37,3.27c1.87,0 3.37,-1.42 3.37,-3.27c0,-1.81 -1.5,-3.26 -3.37,-3.26c-1.89,0 -3.37,1.44 -3.37,3.26zm19.42,0c0,1.84 1.52,3.27 3.41,3.27c1.87,0 3.37,-1.42 3.37,-3.27c0,-1.81 -1.5,-3.26 -3.37,-3.26c-1.89,0 -3.41,1.44 -3.41,3.26z" id="svg_1"/>
  <line fill="none" id="svg_3" x1="23.43" x2="30.05" y1="7.35" y2="7.6"/>
  <line fill="none" id="svg_4" x1="5.68" x2="15.93" y1="0.98" y2="4.23"/>
 </g>
</svg>